Coordinates
version=1
nRows=24
nColumns=22
inDegrees=yes

Units are S.I. units (second, meters, Newtons, ...)
If the header above contains a line with 'inDegrees', this indicates whether rotational values are in degrees (yes) or radians (no).

endheader
time	pelvis_tilt	pelvis_list	pelvis_rotation	pelvis_tx	pelvis_ty	pelvis_tz	hip_flexion_r	hip_adduction_r	hip_rotation_r	knee_angle_r	ankle_angle_r	subtalar_angle_r	hip_flexion_l	hip_adduction_l	hip_rotation_l	knee_angle_l	ankle_angle_l	subtalar_angle_l	lumbar_extension	lumbar_bending	lumbar_rotation
      3.84000000	     -5.26177497	     -0.85477368	     20.81810458	     -0.07226982	      0.92871855	     -0.55379456	      9.40547309	      5.88846778	      2.28574138	    -61.03578774	    -15.45115477	      4.94159788	     28.57679977	     -0.08130943	     14.78019446	    -28.41628464	      9.48050922	     10.24099202	     -0.02839687	     -2.67641306	     -2.86133636
      3.85000000	     -5.27903320	     -0.49864349	     20.42379007	     -0.06376563	      0.93063619	     -0.55796315	     11.20175011	      4.98263735	      1.16269099	    -63.16726402	    -15.35727597	      4.44418284	     27.55770239	      0.08709367	     14.26318084	    -28.04278284	      9.96307418	     10.13110027	     -0.23207006	     -2.95064525	     -3.30662051
      3.86000000	     -5.25346355	     -0.22678843	     20.03369709	     -0.05527634	      0.93262935	     -0.56186120	     12.92683424	      4.24461786	      0.17419560	    -65.01450637	    -14.71978852	      3.84782937	     26.48751156	      0.15453961	     13.80583063	    -27.57296982	     10.41065334	     10.03816137	     -0.44367206	     -3.12568959	     -3.72183317
      3.87000000	     -5.21512777	     -0.02715450	     19.62792606	     -0.04679115	      0.93464754	     -0.56543871	     14.61261025	      3.66594523	     -0.68402186	    -66.57987628	    -13.66496485	      3.43344315	     25.40023804	      0.12383324	     13.33401045	    -27.02282938	     10.82656018	     10.00682777	     -0.63557147	     -3.23246384	     -4.09808555
      3.88000000	     -5.15347157	      0.08315215	     19.21463678	     -0.03831927	      0.93665743	     -0.56871145	     16.24352886	      3.27303392	     -1.46247287	    -67.84895194	    -12.35216745	      2.77328155	     24.31129759	     -0.02149977	     12.83272220	    -26.42695509	     11.21003872	      9.97032762	     -0.81619900	     -3.24477532	     -4.46487949
      3.89000000	     -5.09108200	      0.13541816	     18.81518031	     -0.02988140	      0.93863943	     -0.57173727	     17.83407001	      3.00463450	     -2.19237367	    -68.83149417	    -10.86468845	      2.42487281	     23.21729532	     -0.22634838	     12.35647996	    -25.76596746	     11.54677664	      9.97915471	     -0.97498716	     -3.20627378	     -4.83175321
      3.90000000	     -5.03426640	      0.14315953	     18.41508372	     -0.02146653	      0.94056031	     -0.57454768	     19.38682658	      2.82245858	     -2.91168214	    -69.53783924	     -9.36721065	      1.95399615	     22.11657448	     -0.47543962	     11.89738058	    -25.04563153	     11.87823027	      9.98996477	     -1.10856168	     -3.13019810	     -5.15577978
      3.91000000	     -4.96311158	      0.08955035	     18.05163567	     -0.01311247	      0.94241127	     -0.57720170	     20.87374917	      2.72747332	     -3.66037082	    -69.96465062	     -7.82809594	      1.64574978	     21.03621490	     -0.77731050	     11.44615705	    -24.32578084	     12.18639849	      9.99271173	     -1.24057837	     -2.98477223	     -5.54221909
      3.92000000	     -4.90734398	      0.00071272	     17.70583055	     -0.00479603	      0.94415582	     -0.57974831	     22.32288348	      2.65794801	     -4.44213988	    -70.14264005	     -6.30648364	      1.41351841	     19.96372078	     -1.09256906	     11.05453142	    -23.56585323	     12.47855731	      9.99080374	     -1.33978807	     -2.80707951	     -5.89825992
      3.93000000	     -4.84630795	     -0.06052232	     17.38691290	      0.00347710	      0.94582991	     -0.58226201	     23.68934530	      2.52834386	     -5.26306827	    -70.09243925	     -4.80647270	      1.20458854	     18.86939407	     -1.36323874	     10.66612639	    -22.78130363	     12.73028312	      9.97209797	     -1.45448579	     -2.64830795	     -6.31772878
      3.94000000	     -4.80336286	     -0.15991867	     17.08497346	      0.01172049	      0.94736307	     -0.58471559	     25.01496584	      2.38725320	     -6.14483522	    -69.81964230	     -3.34987360	      1.06296123	     17.81001892	     -1.64755834	     10.32102200	    -21.99865445	     12.97454032	      9.94390901	     -1.53346290	     -2.44991458	     -6.70309921
      3.95000000	     -4.71564776	     -0.23102084	     16.82144428	      0.01997145	      0.94886086	     -0.58718456	     26.20566888	      2.16375855	     -7.09572374	    -69.33986881	     -1.95639123	      1.00295820	     16.68511770	     -1.89219154	     10.02201498	    -21.19317929	     13.18983677	      9.85922525	     -1.66521128	     -2.25702834	     -7.17474918
      3.96000000	     -4.64426946	     -0.31960508	     16.56111152	      0.02820891	      0.95021051	     -0.58960052	     27.34695106	      1.89947162	     -8.09076653	    -68.67224241	     -0.65741321	      0.99625792	     15.59203839	     -2.13468318	      9.74173980	    -20.40361316	     13.39419044	      9.74646963	     -1.76926585	     -2.04286497	     -7.61318683
      3.97000000	     -4.57565102	     -0.40964328	     16.31015586	      0.03645188	      0.95142056	     -0.59196744	     28.41896134	      1.58012566	     -9.13249811	    -67.83516216	      0.52156184	      1.01963232	     14.51651076	     -2.36370821	      9.47375142	    -19.63907976	     13.58433340	      9.61708135	     -1.86423895	     -1.82167609	     -8.05302699
      3.98000000	     -4.49895843	     -0.50187132	     16.06006218	      0.04472289	      0.95250424	     -0.59425484	     29.40886861	      1.22216308	    -10.20586029	    -66.83940727	      1.55695232	      1.07993794	     13.43971956	     -2.58845905	      9.21928660	    -18.88879617	     13.75985615	      9.44887494	     -1.96160932	     -1.59238954	     -8.48250610
      3.99000000	     -4.41890934	     -0.59716057	     15.80370114	      0.05302438	      0.95344747	     -0.59643357	     30.32192217	      0.84659428	    -11.29009555	    -65.69494419	      2.44467002	      1.17052714	     12.37435977	     -2.81061684	      8.96316779	    -18.16690498	     13.92545250	      9.24179971	     -2.05561025	     -1.35666872	     -8.89228636
      4.00000000	     -4.34336495	     -0.69917107	     15.52934453	      0.06135555	      0.95422595	     -0.59846971	     31.17389668	      0.47288839	    -12.36501087	    -64.42076412	      3.19605051	      1.28630431	     11.33219562	     -3.03583740	      8.69244086	    -17.48043826	     14.08908982	      9.01120987	     -2.13888622	     -1.11619014	     -9.27249238
      4.01000000	     -4.26962272	     -0.80630622	     15.23786585	      0.06971773	      0.95484482	     -0.60034861	     31.96001171	      0.11930849	    -13.41385987	    -63.02005126	      3.81576808	      1.44315155	     10.31158968	     -3.26440712	      8.40046273	    -16.83081335	     14.25935276	      8.76082732	     -2.21708684	     -0.87062117	     -9.62056112
      4.02000000	     -4.20173946	     -0.91755325	     14.92856508	      0.07810300	      0.95529453	     -0.60205592	     32.68868201	     -0.20622319	    -14.42667539	    -61.50518874	      4.31283156	      1.65275772	      9.32291509	     -3.49572636	      8.07538455	    -16.22811112	     14.44538097	      8.51597015	     -2.28838353	     -0.62463325	     -9.93468486
      4.03000000	     -4.14007776	     -1.00887579	     14.57861060	      0.08654408	      0.95558199	     -0.60356273	     33.35989977	     -0.50103055	    -15.35664607	    -59.88948308	      4.71909161	      2.01796449	      8.33712002	     -3.70798326	      7.71540344	    -15.64363061	     14.64551371	      8.22558309	     -2.35674785	     -0.40775556	    -10.17574390
      4.04000000	     -4.09146741	     -1.11276605	     14.23606273	      0.09498658	      0.95569030	     -0.60490584	     33.98387375	     -0.75366177	    -16.25595750	    -58.16740201	      5.02793030	      2.40120564	      7.41400717	     -3.92728708	      7.32135885	    -15.13366573	     14.88962254	      8.06583474	     -2.41115524	     -0.18239235	    -10.42773403
      4.05000000	     -4.05808329	     -1.22996366	     13.88793343	      0.10344528	      0.95561827	     -0.60606245	     34.56480653	     -0.95004024	    -17.10627669	    -56.34216143	      5.22908444	      2.73225684	      6.54784647	     -4.15869863	      6.87966540	    -14.68961892	     15.18487985	      7.98764297	     -2.44882886	      0.05013877	    -10.67067148
      4.06000000	     -4.02509957	     -1.28938941	     13.50991387	      0.11197550	      0.95540780	     -0.60705536	     35.07759114	     -1.14663785	    -17.85211341	    -54.44273891	      5.41424752	      3.17038548	      5.64814246	     -4.33093596	      6.42384952	    -14.22925834	     15.49767569	      7.95293060	     -2.49766422	      0.21699160	    -10.84549805
      4.07000000	     -4.01845349	     -1.36218998	     13.13662035	      0.12051100	      0.95500450	     -0.60788590	     35.55598446	     -1.29059285	    -18.54912728	    -52.44298724	      5.51315763	      3.40545680	      4.81792275	     -4.50987917	      5.93629002	    -13.83693425	     15.82770001	      7.93562508	     -2.51647441	      0.39237304	    -11.03320666
